<svg width="80" height="80" viewBox="0 0 80 80" fill="none" xmlns="http://www.w3.org/2000/svg">
<style>
		.fr-artwork-decorative {
			fill: #ECECFF;
		}
		.fr-artwork-minor {
			fill: #E1000F;
		}
		.fr-artwork-major {
			fill: #000091;
		}
	</style>
<g class="fr-artwork-minor" id="artwork-minor">
<path d="M30.4252 8.38142C30.2941 8.39011 30.166 8.42457 30.0482 8.48281C29.9304 8.54104 29.8252 8.62191 29.7387 8.72082C27.4577 11.3435 25.8033 14.7222 24.2392 18.0515C23.5391 19.5422 23.6955 21.1111 24.3057 22.429C25.3508 24.6867 27.5472 26.4525 29.3918 27.8251C29.4969 27.9044 29.6166 27.9621 29.7441 27.995C29.8715 28.0279 30.0041 28.0353 30.1345 28.0168C30.2648 27.9983 30.3901 27.9542 30.5034 27.8871C30.6166 27.8201 30.7156 27.7314 30.7944 27.626C30.8733 27.5205 30.9304 27.4004 30.9627 27.2727C30.995 27.1449 31.0018 27.012 30.9826 26.8817C30.9634 26.7514 30.9186 26.6262 30.8508 26.5132C30.783 26.4002 30.6936 26.3017 30.5877 26.2234C28.8187 24.907 26.8639 23.191 26.1216 21.5876C25.6883 20.6515 25.6074 19.8382 26.0479 18.9006C27.6005 15.5957 29.2125 12.3717 31.2448 10.0349C31.4189 9.83513 31.5065 9.57446 31.4885 9.3101C31.4705 9.04574 31.3483 8.79931 31.1488 8.62497C30.9493 8.45137 30.6891 8.36371 30.4252 8.38142ZM39.0251 4.21065C36.5855 4.22199 34.4877 4.91534 32.721 6.07089C32.6107 6.1429 32.5158 6.23602 32.4416 6.34483C32.3674 6.45364 32.3154 6.57603 32.2886 6.70498C32.2619 6.83393 32.2609 6.96688 32.2856 7.09622C32.3104 7.22557 32.3605 7.34874 32.433 7.45869C32.5784 7.67933 32.8051 7.83345 33.0638 7.88741C33.3225 7.94138 33.5919 7.8908 33.8134 7.7467C35.2889 6.78156 36.9596 6.2212 39.0324 6.21126C42.4579 6.19614 45.0418 7.667 47.1377 9.99817C49.2336 12.3294 50.7761 15.5347 51.8474 18.79C52.3201 20.2268 51.8436 21.7772 50.8656 23.1675C49.8876 24.5577 48.3999 25.6903 47.3666 26.0907C47.243 26.1377 47.1301 26.2086 47.0341 26.2995C46.9382 26.3904 46.8613 26.4994 46.8077 26.6202C46.7542 26.741 46.7251 26.8713 46.7222 27.0034C46.7193 27.1355 46.7426 27.2669 46.7908 27.3899C46.8384 27.5128 46.9099 27.625 47.0011 27.7201C47.0923 27.8153 47.2015 27.8914 47.3222 27.9442C47.4429 27.9971 47.5729 28.0255 47.7047 28.0279C47.8364 28.0303 47.9674 28.0067 48.09 27.9583C49.6398 27.3577 51.2861 26.0404 52.497 24.319C53.7078 22.5977 54.4732 20.3769 53.7445 18.1625C52.6186 14.741 50.997 11.2968 48.6215 8.65467C46.246 6.01251 43.0455 4.19229 39.0251 4.21065ZM35.7697 31.221C35.5133 31.1571 35.242 31.1974 35.0152 31.3329C34.7883 31.4685 34.6244 31.6883 34.5591 31.9444C34.4544 32.3664 34.3603 32.7217 34.2197 33.0665C34.1208 33.3113 34.1227 33.5852 34.2251 33.8286C34.3274 34.072 34.5218 34.2651 34.766 34.3657C34.8876 34.4158 35.0179 34.4414 35.1495 34.441C35.281 34.4407 35.4112 34.4145 35.5326 34.3637C35.654 34.313 35.7642 34.2388 35.8568 34.1454C35.9495 34.052 36.0228 33.9412 36.0726 33.8194C36.2793 33.3127 36.3885 32.8531 36.4933 32.4316C36.5572 32.1752 36.5169 31.9039 36.3813 31.6771C36.2458 31.4502 36.0258 31.2862 35.7697 31.221ZM42.1846 31.221C41.9271 31.2846 41.7055 31.4479 41.5685 31.675C41.4314 31.902 41.3902 32.1742 41.4538 32.4316C41.614 33.0786 41.8056 33.8333 42.3027 34.6609C42.8101 35.506 43.5629 36.3188 44.2737 37.1044C44.4521 37.2997 44.7006 37.4164 44.9649 37.4289C45.2292 37.4413 45.4876 37.3486 45.6836 37.1709C45.8799 36.9935 45.998 36.7454 46.0118 36.4812C46.0256 36.2169 45.9341 35.9578 45.7573 35.7609C45.0465 34.9753 44.3457 34.1781 44.0152 33.6276C43.6743 33.0598 43.5553 32.5985 43.3951 31.9519C43.3314 31.6945 43.1681 31.4728 42.9411 31.3358C42.7141 31.1987 42.442 31.1574 42.1846 31.221ZM48.3927 15.3868C48.1286 15.4048 47.8823 15.5267 47.7079 15.726C47.5335 15.9253 47.4453 16.1856 47.4626 16.4498C47.5772 18.0776 47.4475 21.1924 47.4475 22.8721C47.4475 27.6655 43.6545 31.5163 38.9657 31.5163C38.8344 31.5157 38.7042 31.5411 38.5826 31.5909C38.4611 31.6407 38.3505 31.714 38.2572 31.8065C38.164 31.8991 38.09 32.0091 38.0392 32.1303C37.9885 32.2515 37.9622 32.3815 37.9617 32.5128C37.9612 32.6448 37.9868 32.7756 38.0371 32.8976C38.0874 33.0196 38.1613 33.1306 38.2546 33.2239C38.348 33.3172 38.4589 33.3911 38.5809 33.4414C38.7029 33.4916 38.8337 33.5173 38.9657 33.5168C44.7532 33.5168 49.448 28.7287 49.448 22.8721C49.448 21.3067 49.5961 18.2061 49.4631 16.3096C49.4433 16.0453 49.3195 15.7998 49.1188 15.6267C48.9181 15.4537 48.657 15.3675 48.3927 15.3868ZM29.3918 15.3868C29.1275 15.3675 28.8664 15.4537 28.6657 15.6267C28.465 15.7998 28.3412 16.0453 28.3214 16.3096C28.188 18.2061 28.3365 21.3067 28.3365 22.8721C28.3365 28.7287 33.0312 33.5168 38.8188 33.5168C38.9502 33.5173 39.0803 33.4919 39.2019 33.4421C39.3235 33.3923 39.434 33.319 39.5272 33.2265C39.6204 33.134 39.6945 33.0239 39.7452 32.9027C39.7959 32.7815 39.8223 32.6516 39.8227 32.5202C39.8232 32.3882 39.7976 32.2575 39.7473 32.1354C39.6971 32.0134 39.6231 31.9024 39.5298 31.8091C39.4365 31.7158 39.3256 31.6419 39.2036 31.5916C39.0815 31.5414 38.9508 31.5157 38.8188 31.5163C34.1301 31.5163 30.337 27.6654 30.337 22.8721C30.337 21.1924 30.2077 18.0776 30.3219 16.4498C30.3392 16.1856 30.2509 15.9253 30.0766 15.726C29.9022 15.5267 29.656 15.4048 29.3918 15.3868ZM38.3165 11.098C38.1851 11.0974 38.0549 11.1228 37.9334 11.1726C37.8118 11.2224 37.7013 11.2957 37.608 11.3883C37.5148 11.4808 37.4407 11.5908 37.39 11.712C37.3393 11.8332 37.313 11.9632 37.3125 12.0945C37.3125 14.5691 38.5892 16.2441 40.3391 16.9518C42.089 17.6595 44.1915 17.6678 46.3996 17.6678C47.1765 17.6678 47.9308 17.5703 48.6585 17.3798C48.9148 17.313 49.1342 17.1473 49.2684 16.9189C49.4027 16.6906 49.4409 16.4183 49.3745 16.1618C49.3078 15.9055 49.142 15.6861 48.9136 15.5519C48.6853 15.4176 48.413 15.3795 48.1565 15.4458C47.5919 15.5936 47.0043 15.6673 46.3996 15.6673C44.2199 15.6673 42.2786 15.5819 41.0847 15.0989C39.8908 14.616 39.313 14.0079 39.313 12.0945C39.3121 11.8304 39.2068 11.5774 39.0201 11.3908C38.8334 11.2041 38.5805 11.0989 38.3165 11.098ZM38.2787 11.0904C38.0147 11.0913 37.7617 11.1966 37.575 11.3833C37.3883 11.5699 37.283 11.8229 37.2821 12.087C37.2821 13.423 36.7725 14.2513 35.8648 14.8847C34.957 15.5181 33.586 15.8812 32.0262 15.8812C31.2401 15.8812 30.4648 15.7161 29.7599 15.394C29.6403 15.3389 29.5109 15.308 29.3793 15.303C29.2476 15.2981 29.1163 15.3192 28.9928 15.3652C28.8693 15.4111 28.7561 15.481 28.6597 15.5709C28.5634 15.6607 28.4857 15.7687 28.4312 15.8886C28.3222 16.1295 28.3131 16.4038 28.4058 16.6514C28.4985 16.899 28.6855 17.0999 28.9258 17.21C29.8949 17.6528 30.9552 17.8817 32.0262 17.8817C33.8869 17.8817 35.6448 17.4753 37.009 16.5235C38.3731 15.5716 39.2826 14.0037 39.2826 12.087C39.2821 11.9556 39.2558 11.8256 39.2051 11.7044C39.1544 11.5832 39.0803 11.4733 38.9871 11.3807C38.8938 11.2882 38.7833 11.2149 38.6617 11.1651C38.5402 11.1153 38.4101 11.0899 38.2787 11.0904ZM19.13 48.2582C17.0413 49.5249 14.8902 50.735 13.7191 52.3625C12.548 53.9908 12.7977 55.8851 13.5937 57.1976C14.3898 58.5101 15.9565 59.6098 17.9416 59.3236C19.9266 59.0375 21.9948 57.6968 24.0833 56.43C24.1959 56.3613 24.2937 56.271 24.3713 56.1643C24.4481 56.058 24.5034 55.9377 24.5338 55.8101C24.5671 55.6825 24.5748 55.5495 24.5565 55.4189C24.536 55.2908 24.4908 55.168 24.4235 55.0572C23.1167 52.9027 21.81 50.745 20.5037 48.5906C20.3655 48.3647 20.1433 48.2028 19.8859 48.1406C19.6284 48.0783 19.3562 48.1205 19.13 48.2582ZM19.3587 50.5613C20.2883 52.0942 21.212 53.6276 22.1417 55.1603C20.422 56.1698 18.6529 57.2012 17.6535 57.3453C16.4519 57.5184 15.8167 57.0059 15.306 56.1642C14.7955 55.3224 14.634 54.5218 15.3438 53.5362C15.9345 52.7153 17.6657 51.6215 19.3587 50.5613Z" fill="#E1000F"/>
</g>
<g class="fr-artwork-major" id="artwork-major">
<path d="M53.3195 30.7646C53.0547 30.7821 52.8077 30.9042 52.633 31.104C50.352 33.7267 48.6975 37.1054 47.1335 40.4347C46.4333 41.9253 46.5898 43.4942 47.2 44.8122C48.2451 47.0698 50.4414 48.8356 52.2861 50.2083C52.7282 50.5416 53.3569 50.4523 53.6887 50.0091C54.0203 49.5651 53.9276 48.936 53.4819 48.6065C51.7129 47.2902 49.7582 45.5742 49.0159 43.9707C48.5826 43.0347 48.5017 42.2213 48.9422 41.2837C50.4948 37.9789 52.1068 34.7548 54.139 32.4181C54.5015 32.0021 54.4585 31.3711 54.043 31.0081C53.8436 30.8345 53.5833 30.7468 53.3195 30.7646ZM61.9194 26.5938C59.4797 26.6051 57.382 27.2985 55.6153 28.454C55.1514 28.757 55.0222 29.3793 55.3273 29.8418C55.6299 30.3011 56.2466 30.4298 56.7077 30.1298C58.1832 29.1647 59.8538 28.6043 61.9266 28.5944C65.3521 28.5793 67.9361 30.0501 70.032 32.3813C72.1279 34.7125 73.6704 37.9178 74.7416 41.1731C75.2144 42.6099 74.7379 44.1603 73.7598 45.5506C72.7819 46.9409 71.2942 48.0734 70.2608 48.4738C69.741 48.6715 69.4823 49.2552 69.685 49.7731C69.8857 50.2899 70.4685 50.5449 70.9842 50.3415C72.5341 49.7409 74.1804 48.4235 75.3912 46.7022C76.6021 44.9808 77.3675 42.7601 76.6388 40.5457C75.5128 37.1242 73.8912 33.6799 71.5157 31.0378C69.1403 28.3956 65.9397 26.5754 61.9194 26.5938ZM58.664 53.6041C58.1301 53.4712 57.5892 53.7945 57.4534 54.3275C57.3487 54.7495 57.2545 55.1049 57.114 55.4496C56.908 55.9592 57.152 56.5394 57.6602 56.7488C58.1719 56.9596 58.7574 56.7148 58.9668 56.2026C59.1735 55.6959 59.2828 55.2362 59.3876 54.8147C59.5205 54.2809 59.1971 53.74 58.664 53.6041ZM71.287 37.7699C70.737 37.8073 70.3209 38.2828 70.3569 38.8329C70.4714 40.4607 70.3418 43.5756 70.3418 45.2552C70.3418 50.0486 66.5487 53.8994 61.86 53.8994C61.3075 53.8972 60.8579 54.3435 60.856 54.8959C60.8538 55.4513 61.3046 55.9021 61.86 55.8999C67.6475 55.8999 72.3422 51.1118 72.3422 45.2552C72.3422 43.6899 72.4904 40.5893 72.3574 38.6927C72.3162 38.1425 71.8373 37.7296 71.287 37.7699ZM52.286 37.7699C51.7358 37.7296 51.2568 38.1425 51.2157 38.6927C51.0822 40.5893 51.2308 43.6898 51.2308 45.2552C51.2308 51.1118 55.9255 55.8999 61.713 55.8999C62.2655 55.9021 62.7151 55.4558 62.717 54.9033C62.7192 54.348 62.2684 53.8972 61.713 53.8994C57.0243 53.8994 53.2312 50.0485 53.2312 45.2552C52.6745 43.1714 54.5151 38.874 52.286 37.7699ZM61.2107 33.4811C60.6583 33.4789 60.2087 33.9252 60.2068 34.4776C60.2068 36.9522 61.4835 38.6272 63.2334 39.3349C64.9833 40.0426 67.0857 40.051 69.2939 40.051C70.0707 40.051 70.8251 39.9535 71.5528 39.763C72.0865 39.6239 72.4069 39.0789 72.2688 38.5449C72.1297 38.0112 71.5848 37.6909 71.0508 37.8289C70.4862 37.9767 69.8986 38.0504 69.2939 38.0504C67.1142 38.0504 65.1729 37.965 63.9789 37.482C62.785 36.9992 62.2073 36.391 62.2073 34.4776C62.2054 33.928 61.7603 33.483 61.2107 33.4811ZM61.1737 33.4737C60.6241 33.4756 60.179 33.9207 60.1771 34.4703C60.1771 35.8063 59.6676 36.6346 58.7598 37.268C57.852 37.9014 56.481 38.2645 54.9212 38.2645C54.1351 38.2645 53.3598 38.0994 52.655 37.7774C52.1515 37.5455 51.5556 37.7673 51.3262 38.272C50.6212 39.8301 53.7618 40.265 54.9212 40.265C56.7819 40.265 58.5399 39.8586 59.904 38.9068C61.2681 37.955 62.1776 36.387 62.1776 34.4703C62.1757 33.9178 61.7262 33.4716 61.1737 33.4737ZM55.6196 57.9655C55.2243 58.3091 55.1846 58.909 55.5312 59.3016C56.2338 60.1 56.9723 61.0051 58.0558 61.4867C59.1394 61.9684 60.2034 61.8136 61.075 61.7153C61.593 61.6546 61.9634 61.185 61.9017 60.6671C61.8409 60.1523 61.3761 59.7831 60.8609 59.8403C59.9888 59.9386 59.3071 59.9775 58.8161 59.7591C58.325 59.541 57.6512 58.8521 56.9485 58.0539C56.6056 57.6634 56.0112 57.6239 55.6196 57.9655ZM58.624 53.6102C58.1209 53.4883 57.6135 53.7947 57.4872 54.2967C57.327 54.9433 57.2053 55.4194 56.8597 55.9945C56.5241 56.5534 55.8214 57.3211 55.3317 57.6629C54.8196 58.02 54.5678 58.0565 53.9587 58.1132C53.3534 58.1695 52.6705 58.1725 52.0467 58.1944C51.426 58.2171 50.9158 58.2511 50.4006 58.4083C49.8824 58.5663 49.51 58.8256 49.249 59.0063C48.8205 59.3036 48.7147 59.8923 49.0128 60.3202C49.3101 60.7487 49.8988 60.8546 50.3268 60.5565C50.5876 60.3758 50.7318 60.2753 50.9469 60.2095H50.9544C51.1721 60.143 51.5286 60.1059 52.1134 60.084C52.6951 60.0651 53.4164 60.0538 54.136 59.988C54.8517 59.9215 55.6328 59.7529 56.417 59.2055C57.2236 58.6426 57.9742 57.8055 58.4766 56.9688C58.9693 56.1485 59.1578 55.3938 59.3181 54.7469C59.4395 54.2415 59.129 53.7332 58.624 53.6102ZM65.0758 53.6102C64.5708 53.7332 64.2605 54.2416 64.3819 54.747C64.5422 55.3939 64.7308 56.1486 65.2234 56.969C65.7258 57.8057 66.4763 58.6428 67.283 59.2057C68.0672 59.753 68.8483 59.9217 69.564 59.9882C70.2836 60.0551 71.0049 60.0638 71.5866 60.0842C72.1715 60.1069 72.4327 60.1288 72.7603 60.2762C73.0861 60.4224 73.5456 60.7606 74.0595 61.162C74.4708 61.486 75.0673 61.4131 75.3883 60.9995C75.7073 60.5894 75.6346 59.9986 75.2258 59.6781C74.7117 59.2767 74.1832 58.8473 73.5353 58.5561C72.889 58.2654 72.2736 58.2178 71.6529 58.1944C71.0291 58.1717 70.3389 58.1679 69.7336 58.1131C69.1245 58.0564 68.88 58.0201 68.368 57.6628C67.8783 57.3212 67.1755 56.5534 66.84 55.9945C66.4945 55.4194 66.3727 54.9433 66.2125 54.2967C66.0861 53.7947 65.5789 53.4883 65.0758 53.6102ZM22.999 36.0708C22.233 36.0708 21.478 36.1264 20.7402 36.2334C20.2243 36.3085 19.8672 36.7879 19.9429 37.3037C20.018 37.8196 20.4975 38.1767 21.0133 38.101C21.6623 38.0069 22.324 37.9608 22.999 37.9608C30.7679 37.9608 37.0689 44.4042 37.0689 52.4071C37.0689 60.4101 30.7679 66.8535 22.999 66.8535C22.1626 66.8535 21.3506 66.7824 20.5556 66.6395C20.0416 66.5444 19.5483 66.8854 19.4557 67.3999C19.3651 67.9113 19.705 68.3997 20.2161 68.4924C21.1207 68.6553 22.0503 68.7434 22.999 68.7434C31.813 68.7434 38.9587 61.4047 38.9587 52.4073C38.9587 43.4099 31.813 36.0708 22.999 36.0708ZM10.8041 43.3863C10.3618 43.1111 9.78005 43.2466 9.50491 43.689C7.94722 46.2122 7.04674 49.2077 7.04674 52.4071C7.04674 57.1805 9.04993 61.4873 12.251 64.4764C12.6317 64.8344 13.2309 64.8145 13.5871 64.4322C13.9431 64.0494 13.9198 63.4502 13.5353 63.0961C10.7073 60.4553 8.92902 56.653 8.92902 52.4071C8.92902 49.5614 9.72809 46.9113 11.1067 44.6783C11.3769 44.2375 11.242 43.6612 10.8041 43.3863ZM25.0659 32.4685C17.2972 31.6715 9.43344 35.4849 5.4375 42.7515C0.109649 52.4403 3.65473 64.6406 13.3435 69.9685C23.0323 75.2964 35.2326 71.7513 40.5605 62.0625C41.0114 61.2425 41.338 60.5575 41.6635 59.7072C41.9617 59.9208 41.6484 59.6884 41.6635 59.7072C45.1081 61.6015 48.2956 63.3433 51.5373 65.1259C54.7791 66.9085 57.8234 68.5996 59.2957 69.7322C60.032 70.2986 60.3747 70.7212 60.5284 71.0019C60.6823 71.2827 60.6951 71.4284 60.691 71.6958C60.6834 72.2344 60.5485 72.6652 60.3145 73.0909C60.0806 73.5166 59.7902 73.8545 59.3918 74.0949C59.1922 74.2155 59.1015 74.2646 58.7939 74.2646C58.4862 74.2648 57.947 74.1716 57.0739 73.829C55.3277 73.1441 52.2655 71.4755 49.4041 69.9019C46.5427 68.3284 43.8574 66.8528 41.1733 65.3768C40.7185 65.1281 40.1481 65.2929 39.8962 65.7461C39.6423 66.2026 39.8082 66.7785 40.2655 67.0305C42.9496 68.5065 45.6348 69.9822 48.4963 71.5556C51.3577 73.1292 54.3748 74.7995 56.3802 75.5861C57.3829 75.9794 58.1361 76.1551 58.794 76.1545C59.452 76.154 60.0048 75.93 60.3664 75.7116C61.0905 75.2747 61.6086 74.653 61.9682 73.999C62.3265 73.347 62.5685 72.5798 62.5809 71.7254V71.7178C62.5885 71.2877 62.5167 70.6904 62.1897 70.0938C61.8616 69.4947 61.3138 68.8999 60.4476 68.2336C58.7148 66.9007 55.6873 65.2549 52.4456 63.4723C49.2039 61.6897 45.7622 59.7932 42.3177 57.8989C42.4651 57.88 42.1786 57.8475 42.3177 57.8989C44.8292 49.1107 40.9981 39.4331 32.6547 34.8452C30.2326 33.5132 27.6555 32.7342 25.0659 32.4685ZM24.8668 34.3361C27.2126 34.5788 29.5478 35.2898 31.7467 36.499C40.5422 41.3356 43.7438 52.3591 38.9071 61.1545C34.0704 69.95 23.0471 73.1516 14.2516 68.3149C5.45617 63.4783 2.25453 52.4549 7.09115 43.6594C10.7187 37.0629 17.8291 33.6083 24.8668 34.3361ZM27.5537 44.0802C25.59 44.3542 23.5138 45.68 21.4193 46.937C20.9691 47.2048 20.8233 47.7881 21.0946 48.2362C22.3911 50.3966 23.6886 52.5569 24.9849 54.7175C25.2525 55.1632 25.8302 55.3084 26.2767 55.0421C28.3713 53.7854 30.522 52.5717 31.6877 50.9674C32.8533 49.3629 32.617 47.5016 31.8355 46.1986C31.0537 44.8957 29.518 43.8064 27.5537 44.0802ZM27.8194 45.9478C29.044 45.777 29.6965 46.3155 30.2111 47.1732C30.7256 48.0309 30.8936 48.8599 30.1669 49.8602C29.5541 50.7035 27.7943 51.7925 26.0699 52.8573C25.1279 51.2872 24.1848 49.7176 23.2427 48.1476C24.9917 47.1285 26.7877 46.0917 27.8194 45.9478Z" fill="#000091"/>
</g>
<g class="fr-artwork-decorative" id="artwork-decorative">
<path d="M6.44592 34.9883C5.89453 34.9883 5.44593 34.5397 5.44593 33.9883C5.44593 33.4369 5.89453 32.9883 6.44592 32.9883C6.99732 32.9883 7.44595 33.4369 7.44595 33.9883C7.44595 34.5397 6.99732 34.9883 6.44592 34.9883ZM73.5541 71.9424C73.0027 71.9424 72.5541 71.4939 72.5541 70.9425C72.5541 70.3911 73.0027 69.9425 73.5541 69.9425C74.1055 69.9425 74.5541 70.3911 74.5541 70.9425C74.5541 71.4939 74.1055 71.9424 73.5541 71.9424ZM36.1217 75.7383C35.5704 75.7383 35.1218 75.2897 35.1218 74.7383C35.1218 74.1869 35.5704 73.7383 36.1217 73.7383C36.6732 73.7383 37.1218 74.1869 37.1218 74.7383C37.1218 75.2897 36.6732 75.7383 36.1217 75.7383ZM64.8944 6.26171C64.343 6.26171 63.8944 5.81312 63.8944 5.26172C63.8944 4.71032 64.343 4.26169 64.8944 4.26169C65.4458 4.26169 65.8944 4.71032 65.8944 5.26172C65.8944 5.81312 65.4458 6.26171 64.8944 6.26171ZM17.338 10.2535C16.7866 10.2535 16.338 9.8049 16.338 9.25351C16.338 8.70211 16.7866 8.25352 17.338 8.25352C17.8893 8.25352 18.3379 8.70211 18.3379 9.25351C18.3379 9.8049 17.8893 10.2535 17.338 10.2535Z" fill="#ECECFF"/>
</g>
</svg>
