<?xml version="1.0" encoding="UTF-8" standalone="no"?>
<!-- Created with Inkscape (http://www.inkscape.org/) -->

<svg
   width="80"
   height="80"
   viewBox="0 0 21.166666 21.166667"
   version="1.1"
   id="svg1"
   sodipodi:docname="essai-clinique.svg"
   inkscape:version="1.3.2 (091e20e, 2023-11-25, custom)"
   inkscape:export-filename="essai-clinique-2.svg"
   inkscape:export-xdpi="54.3658"
   inkscape:export-ydpi="54.3658"
   xmlns:inkscape="http://www.inkscape.org/namespaces/inkscape"
   xmlns:sodipodi="http://sodipodi.sourceforge.net/DTD/sodipodi-0.dtd"
   xmlns="http://www.w3.org/2000/svg"
   xmlns:svg="http://www.w3.org/2000/svg">
  <sodipodi:namedview
     id="namedview1"
     pagecolor="#505050"
     bordercolor="#ffffff"
     borderopacity="1"
     inkscape:showpageshadow="0"
     inkscape:pageopacity="0"
     inkscape:pagecheckerboard="1"
     inkscape:deskcolor="#d1d1d1"
     inkscape:zoom="4"
     inkscape:cx="3.75"
     inkscape:cy="49.5"
     inkscape:window-width="1920"
     inkscape:window-height="1017"
     inkscape:window-x="-8"
     inkscape:window-y="-8"
     inkscape:window-maximized="1"
     inkscape:current-layer="layer1-4"
     showgrid="true"
     showguides="false">
    <inkscape:grid
       id="grid107"
       units="px"
       originx="39.158329"
       originy="74.083336"
       spacingx="0.26458332"
       spacingy="0.26458334"
       empcolor="#0099e5"
       empopacity="0.30196078"
       color="#0099e5"
       opacity="0.14901961"
       empspacing="2"
       dotted="false"
       gridanglex="30"
       gridanglez="30"
       visible="true"
       enabled="false"
       snapvisiblegridlinesonly="true" />
  </sodipodi:namedview>
  <defs
     id="defs1" />
  <g
     inkscape:groupmode="layer"
     id="layer3"
     inkscape:label="Restes"
     style="display:none"
     sodipodi:insensitive="true">
    <rect
       style="display:inline;fill:#ffffff;fill-opacity:1;fill-rule:evenodd;stroke-width:0.165648"
       id="rect107-5"
       width="21.166666"
       height="21.166666"
       x="0"
       y="0" />
  </g>
  <rect
     style="display:none;fill:#ffffff;fill-opacity:1;fill-rule:evenodd;stroke-width:0.165648"
     id="rect107-5-3"
     width="21.166666"
     height="21.166666"
     x="2.345581e-07"
     y="2.345581e-07" />
  <g
     inkscape:groupmode="layer"
     id="layer1-4"
     inkscape:label="Proposition 1"
     style="display:none"
     transform="translate(3.3734386,3.7554735)"
     sodipodi:insensitive="true">
    <g
       inkscape:groupmode="layer"
       id="layer1"
       inkscape:label="artwork-decorative"
       style="display:inline">
      <path
         id="path1-0-8"
         style="display:inline;fill:#ececff;stroke-width:0.264583"
         d="m -2.3186222,4.3773697 c -0.145892,0 -0.264584,-0.11869 -0.264584,-0.26458 0,-0.14589 0.118692,-0.26458 0.264584,-0.26458 0.145891,0 0.264583,0.11869 0.264583,0.26458 0,0.14589 -0.118692,0.26458 -0.264583,0.26458 z M 16.100631,15.279298 c -0.145891,0 -0.264584,-0.11869 -0.264584,-0.26458 0,-0.14589 0.118693,-0.26458 0.264584,-0.26458 0.145891,0 0.264583,0.11869 0.264583,0.26458 0,0.14589 -0.118692,0.26458 -0.264583,0.26458 z m -9.9039625,1.004325 c -0.145891,0 -0.264582,-0.11869 -0.264582,-0.26458 0,-0.14589 0.118691,-0.26459 0.264582,-0.26459 0.145892,0 0.264584,0.1187 0.264584,0.26459 0,0.14589 -0.118692,0.26458 -0.264584,0.26458 z M 13.809434,-2.0987325 c -0.145891,0 -0.264583,-0.118691 -0.264583,-0.264581 0,-0.145889 0.118692,-0.26459 0.264583,-0.26459 0.145892,0 0.264584,0.118701 0.264584,0.26459 0,0.14589 -0.118692,0.264581 -0.264584,0.264581 z M 1.2267845,-1.04256 c -0.145891,0 -0.26458298,-0.1187 -0.26458298,-0.26459 0,-0.14589 0.11869198,-0.26458 0.26458298,-0.26458 0.145891,0 0.264583,0.11869 0.264583,0.26458 0,0.14589 -0.118692,0.26459 -0.264583,0.26459 z" />
    </g>
    <g
       inkscape:groupmode="layer"
       id="layer4"
       inkscape:label="artwork-major"
       style="display:inline">
      <path
         id="path106-8-2"
         style="display:inline;fill:none;fill-opacity:1;stroke:#000091;stroke-width:0.529167;stroke-linecap:round;stroke-linejoin:round;stroke-miterlimit:3.9;stroke-dasharray:none;stroke-opacity:1;paint-order:stroke fill markers"
         d="M 6.8343184,2.7719604 C 7.1773648,3.3435825 7.5203431,3.9152468 7.8633129,4.4869162 M 6.834319,2.7719613 C 7.3884636,2.439412 7.9426965,2.1070429 8.3645033,2.0482044 8.7863678,1.9894479 9.0759,2.2044431 9.2473984,2.4902691 9.4188849,2.7760988 9.4723537,3.1327377 9.2219943,3.4773256 8.9716345,3.821909 8.4174794,4.1544109 7.8633103,4.4869166 M -1.2397791,10.641287 C -1.9969019,10.077886 -2.9311998,9.250833 -2.5217634,8.3792862 -2.109462,7.5016406 -1.6774054,6.6282361 -1.1068006,5.972139 M -0.37274036,5.3187931 C 0.05618242,5.0382423 0.55522407,4.871611 1.1521795,4.8687522 M 4.6210736,9.5808356 C 4.3365183,10.08251 3.8463545,10.488849 3.4529449,10.641287 M 1.73522,6.8140577 c 0,0.8606431 -1.53080487,1.143762 -2.43581092,1.143762 -0.24567268,0 -0.48820188,-0.052535 -0.70964258,-0.1537087 m 1.06430462,5.302019 c 0.18592245,0.211215 0.37184498,0.42243 0.58014923,0.515009 0.20830426,0.09258 0.43898987,0.06652 0.66967549,0.04047 M 0.22486409,12.007308 c -0.0424425,0.171115 -0.0826333,0.333153 -0.19348763,0.517769 -0.11085431,0.184615 -0.30327325,0.397266 -0.47476223,0.516944 -0.17148899,0.119677 -0.30761281,0.147362 -0.48287272,0.163649 -0.17525991,0.01629 -0.36174841,0.01755 -0.52123041,0.02314 -0.1594819,0.0056 -0.274515,0.01486 -0.3714723,0.04449 -0.096957,0.02963 -0.1660634,0.07745 -0.2350778,0.125198 m 4.1043297,-1.391192 c 0.042442,0.171115 0.082633,0.333153 0.1934873,0.517769 0.1108543,0.184615 0.3032732,0.397266 0.4747622,0.516944 0.171489,0.119677 0.3076128,0.147362 0.4828727,0.163649 0.1752599,0.01629 0.3617484,0.01755 0.5212304,0.02314 0.1594819,0.0056 0.2750234,0.0149 0.4038592,0.07278 0.1288359,0.05789 0.2600134,0.160328 0.3960091,0.266532 M 1.1340428,12.094 c 1.3859303,0 2.50945,-1.14214 2.50945,-2.5510415 0,-0.1936476 0.00753,-0.467343 0.0127,-0.75226 M 1.0965774,12.094126 c -1.38593116,0 -2.50945,-1.14214 -2.50945,-2.5510423 0,-0.4292854 -0.036804,-1.2519559 -0.00403,-1.7181944 M 10.941659,10.641287 C 10.544095,10.345446 10.097679,9.9769096 9.822615,9.5674067 M 12.858848,4.907873 c 0.151118,-0.024936 0.309177,-0.038328 0.47477,-0.039125 1.970027,-0.00943 3.060465,1.743945 3.641812,3.510534 0.3179,0.9660298 -0.657583,1.997173 -1.341047,2.262001 m 0.180398,-2.8084477 c -0.170955,0.044731 -0.349509,0.068344 -0.532265,0.068344 -1.160972,0 -2.949263,0.073854 -2.949263,-1.0871219 M 11.835509,13.10613 c 0.185923,0.211215 0.371845,0.42243 0.580149,0.515009 0.208305,0.09258 0.43899,0.06652 0.669676,0.04047 m -0.679033,-1.654296 c -0.04244,0.171115 -0.08263,0.333153 -0.193487,0.517769 -0.110854,0.184615 -0.303273,0.397266 -0.474762,0.516944 -0.171489,0.119677 -0.307613,0.147362 -0.482873,0.163649 -0.17526,0.01629 -0.361748,0.01755 -0.52123,0.02314 -0.159482,0.0056 -0.274515,0.01486 -0.371473,0.04449 -0.09696,0.02963 -0.166063,0.07745 -0.235077,0.125198 m 4.10433,-1.391192 c 0.04244,0.171115 0.08263,0.333153 0.193487,0.517769 0.110854,0.184615 0.303273,0.397266 0.474762,0.516944 0.171489,0.119677 0.307613,0.147362 0.482873,0.163649 0.17526,0.01629 0.361748,0.01755 0.52123,0.02314 0.159482,0.0056 0.275024,0.0149 0.40386,0.07278 0.128835,0.05789 0.260013,0.160328 0.396009,0.266532 M 13.315481,12.094 c 1.38593,0 2.50945,-1.14214 2.50945,-2.5510415 0,-0.4292854 0.0368,-1.2519559 0.004,-1.7181944 m -2.550916,4.2693619 c -1.385931,0 -2.50945,-1.14214 -2.50945,-2.5510423 0,-0.2555114 -0.01304,-0.6503863 -0.01669,-1.0265176 m -4.5601467,1.171154 c 0.01079,0.8103919 0.02157,1.6207779 0.03309,2.4847169 0.0115,0.86394 0.02372,1.781425 0.09932,2.309152 0.07561,0.527728 0.214703,0.665683 0.365955,0.750524 0.151228,0.08492 0.314637,0.116552 0.477625,0.114384 0.162977,-0.0022 0.325464,-0.03818 0.487285,-0.127237 0.161852,-0.08893 0.322914,-0.230956 0.397358,-0.76069 0.07443,-0.529732 0.06221,-1.447199 0.04918,-2.425947 -0.01304,-0.978754 -0.02688,-2.018758 -0.04072,-3.0587622 m -3.132272,-9.75115002 c 0.626097,-0.29042798 1.322149,-0.45657298 2.056923,-0.46635698 2.790408,-0.03715 5.0825927,2.19481102 5.1197437,4.9852161 0.03716,2.7904109 -2.1947987,5.0825989 -4.9852057,5.1197479 -2.790408,0.03715 -5.082601,-2.194802 -5.119751,-4.9852089 -0.01203,-0.9033913 0.213779,-1.7545633 0.61937,-2.4939011" />
    </g>
    <g
       inkscape:groupmode="layer"
       id="layer5"
       inkscape:label="artwork-minor"
       style="display:inline">
      <path
         id="path106-8-54-1"
         style="display:inline;fill:none;fill-opacity:1;stroke:#e52632;stroke-width:0.529167;stroke-linecap:round;stroke-linejoin:round;stroke-miterlimit:3.9;stroke-dasharray:none;stroke-opacity:1;paint-order:stroke fill markers"
         d="M 6.2373695,3.1320843 C 6.5830189,3.7021361 6.92884,4.2720854 7.2745755,4.8420864 M 6.23737,3.1320852 C 5.6847756,3.467203 5.1322992,3.8024832 4.8835443,4.1481772 4.6348355,4.4939602 4.6900008,4.850343 4.8628674,5.1353435 5.0357428,5.4203353 5.3262928,5.6339493 5.7478698,5.5731752 6.1694435,5.5123985 6.7220003,5.1772497 7.2745689,4.8420891 M 10.20772,1.3673118 C 9.4780463,0.42586178 8.3362823,-0.18014522 7.0529763,-0.18016122 c -2.203237,-2.36e-4 -3.989447,1.78576002 -3.989474,3.98899712 2.7e-5,2.2032372 1.786237,3.9892329 3.989474,3.9889969 2.12948,-2.6e-5 3.8692227,-1.6686562 3.9830697,-3.769731 m 0,0 c 0.0039,-0.072589 0.0059,-0.1456951 0.0059,-0.2192659" />
    </g>
  </g>
  <g
     inkscape:groupmode="layer"
     id="layer2"
     inkscape:label="Proposition 2"
     style="display:inline"
     transform="translate(58.424995,3.1270854)"
     sodipodi:insensitive="true">
    <g
       inkscape:groupmode="layer"
       id="layer6"
       inkscape:label="artwork-decorative"
       style="display:inline">
      <path
         id="path1-0"
         style="display:inline;fill:#ececff;stroke-width:0.264583"
         d="m -56.587217,6.0310199 c -0.145892,0 -0.264584,-0.11869 -0.264584,-0.26458 0,-0.14589 0.118692,-0.26458 0.264584,-0.26458 0.145891,0 0.264583,0.11869 0.264583,0.26458 0,0.14589 -0.118692,0.26458 -0.264583,0.26458 z m 17.755694,9.7774491 c -0.145891,0 -0.264584,-0.11869 -0.264584,-0.26458 0,-0.14589 0.118693,-0.26458 0.264584,-0.26458 0.145891,0 0.264583,0.11869 0.264583,0.26458 0,0.14589 -0.118692,0.26458 -0.264583,0.26458 z m -9.903962,1.004325 c -0.145891,0 -0.264582,-0.11869 -0.264582,-0.26458 0,-0.14589 0.118691,-0.26459 0.264582,-0.26459 0.145892,0 0.264584,0.1187 0.264584,0.26459 0,0.14589 -0.118692,0.26458 -0.264584,0.26458 z m 7.612765,-18.3823554 c -0.145891,0 -0.264583,-0.118691 -0.264583,-0.2645811 0,-0.145889 0.118692,-0.26459 0.264583,-0.26459 0.145892,0 0.264584,0.118701 0.264584,0.26459 0,0.1458901 -0.118692,0.2645811 -0.264584,0.2645811 z m -12.582649,1.05617239 c -0.145891,0 -0.264583,-0.1187 -0.264583,-0.26459 0,-0.14589 0.118692,-0.26457999 0.264583,-0.26457999 0.145891,0 0.264583,0.11868999 0.264583,0.26457999 0,0.14589 -0.118692,0.26459 -0.264583,0.26459 z" />
    </g>
    <g
       inkscape:groupmode="layer"
       id="layer7"
       inkscape:label="artwork-minor">
      <path
         id="path106-8-54-1-9"
         style="display:inline;fill:none;fill-opacity:1;stroke:#e52632;stroke-width:0.529167;stroke-linecap:round;stroke-linejoin:round;stroke-miterlimit:3.9;stroke-dasharray:none;stroke-opacity:1;paint-order:stroke fill markers"
         d="m -53.466226,10.340672 c 0.345649,0.570052 0.69147,1.140001 1.037206,1.710002 m -1.037206,-1.710001 c -0.552594,0.335118 -1.105071,0.670398 -1.353826,1.016092 -0.248708,0.345783 -0.193543,0.702166 -0.02068,0.987167 0.172875,0.284991 0.463425,0.498605 0.885002,0.437831 0.421574,-0.06078 0.97413,-0.395925 1.526699,-0.731086 m 2.228905,-8.6114431 c -0.47806,-0.3557401 -1.026755,-0.8165946 -1.263221,-1.3273931 -0.138035,-0.2981751 -0.169676,-0.6133693 -0.01876,-0.9346079 0.412301,-0.87764559 0.844358,-1.75105016 1.414963,-2.4071472 m 0.73406,-0.6533459 c 0.428923,-0.2805508 0.927964,-0.4471821 1.52492,-0.450041 1.970027,-0.00943 3.060465,1.74394508 3.641812,3.5105341 0.3179,0.9660298 -0.657582,1.9971729 -1.341047,2.262001 m -3.798877,2.4648426 c 0.185923,0.2112151 0.371845,0.4224303 0.580149,0.5150094 0.208305,0.092579 0.43899,0.066522 0.669676,0.040465 m -0.679033,-1.654296 c -0.04244,0.1711155 -0.08263,0.3331531 -0.193487,0.5177687 -0.110855,0.1846155 -0.303274,0.3972667 -0.474763,0.516944 -0.171489,0.1196774 -0.307613,0.1473626 -0.461192,0.178598 m 2.954869,-1.2133107 c 0.04244,0.1711155 0.08263,0.3331532 0.193487,0.5177687 0.110854,0.1846155 0.303274,0.397267 0.491348,0.6051169 M -47.826305,4.891947 c 1.385931,0 2.50945,-1.1421398 2.50945,-2.5510416 0,-0.4292854 0.0368,-1.2519559 0.004,-1.71819441 M -47.86377,4.892073 c -1.385931,0 -2.50945,-1.1421399 -2.50945,-2.5510426 0,-0.4292854 -0.0368,-1.2519559 -0.004,-1.71819436 m 5.050216,0.007946 c -0.170956,0.0447308 -0.349509,0.0683444 -0.532265,0.0683444 -1.160972,0 -2.138273,-0.0495306 -2.138273,-1.2105026 m -0.0087,-0.002015 c 0,0.8606431 -0.749718,1.26915717 -1.654724,1.26915717 -0.245673,0 -0.488202,-0.0525348 -0.709643,-0.15370866" />
    </g>
    <g
       inkscape:groupmode="layer"
       id="layer8"
       inkscape:label="artwork-major">
      <path
         id="path18"
         style="display:inline;fill:none;fill-rule:evenodd;stroke:#000091;stroke-width:0.499116;stroke-linecap:round"
         d="m -53.140159,7.1809007 c 0.183467,-0.026618 0.370965,-0.040385 0.561599,-0.040385 2.193776,1e-7 3.972183,1.8231833 3.972183,4.0721943 0,2.249011 -1.778407,4.072195 -3.972183,4.072195 -0.23616,0 -0.467506,-0.02113 -0.692339,-0.06164 m -1.981666,-0.999225 c -0.797603,-0.744802 -1.298178,-1.818136 -1.298178,-3.011329 0,-0.799715 0.224863,-1.5455884 0.613307,-2.1747937 m 8.047197,5.8247527 c 0.71017,0.390524 1.420331,0.781054 2.177435,1.197367 0.757095,0.416332 1.561116,0.85846 2.057419,1.053127 0.496308,0.194658 0.684935,0.141758 0.833365,0.05207 0.148487,-0.08963 0.256638,-0.216143 0.335183,-0.358973 0.07851,-0.142837 0.127401,-0.301917 0.129798,-0.486609 0.0025,-0.184658 -0.04153,-0.394829 -0.465531,-0.720989 -0.424011,-0.326146 -1.228016,-0.768265 -2.085721,-1.239921 -0.857716,-0.47165 -1.769099,-0.97283 -2.680481,-1.474009 m -2.555023,-6.0996586 c 2.445324,1.3446805 3.337558,4.4170876 1.99287,6.8624016 -1.344688,2.445317 -4.417092,3.337559 -6.862408,1.992871 -2.445313,-1.344686 -3.337551,-4.417097 -1.992871,-6.8624112 1.344688,-2.4453163 4.417095,-3.3375468 6.862409,-1.9928614 z m -2.725482,3.195474 c 0.343046,0.5716226 0.686024,1.1432866 1.028994,1.7149556 m -1.028994,-1.7149547 c 0.554145,-0.3325494 1.108378,-0.6649184 1.530184,-0.7237569 0.421865,-0.058757 0.711397,0.1562387 0.882895,0.4420647 0.171487,0.2858297 0.224956,0.6424689 -0.0254,0.9870569 -0.250359,0.344583 -0.804514,0.677085 -1.358684,1.009591 m 7.692076,-2.8761841 c -0.757123,-0.5634008 -1.691421,-1.3904542 -1.281985,-2.262001 0.412302,-0.8776456 0.844358,-1.7510502 1.414963,-2.4071472 m 0.73406,-0.6533459 c 0.428923,-0.2805508 0.927965,-0.4471821 1.52492,-0.450041 1.970027,-0.00943 3.060465,1.7439451 3.641813,3.5105341 0.3179,0.9660298 -0.657583,1.9971729 -1.341047,2.262001 m -3.798874,2.4648431 c 0.185923,0.211215 0.371845,0.42243 0.580149,0.515009 0.208305,0.09258 0.43899,0.06652 0.669676,0.04047 m -0.679033,-1.654296 c -0.04244,0.171115 -0.08263,0.333153 -0.193487,0.517768 -0.110855,0.184616 -0.303274,0.397267 -0.474763,0.516944 -0.171489,0.119678 -0.307612,0.147363 -0.482872,0.163649 -0.17526,0.01629 -0.361749,0.01755 -0.521231,0.02314 -0.159482,0.0056 -0.274515,0.01486 -0.371472,0.04449 -0.09696,0.02963 -0.166063,0.07745 -0.235078,0.125198 m 4.10433,-1.391191 c 0.04244,0.171115 0.08263,0.333153 0.193487,0.517768 0.110854,0.184616 0.303273,0.397267 0.474762,0.516944 0.171489,0.119678 0.307613,0.147363 0.482873,0.163649 0.17526,0.01629 0.361749,0.01755 0.52123,0.02314 0.159482,0.0056 0.275024,0.0149 0.40386,0.07278 0.128836,0.05789 0.260013,0.160328 0.396009,0.266532 m -3.388468,-1.474126 c 1.38593,0 2.50945,-1.14214 2.50945,-2.5510418 0,-0.4292854 0.0368,-1.2519559 0.004,-1.7181944 M -41.81185,10.27216 c -1.385931,0 -2.50945,-1.1421399 -2.50945,-2.5510426 0,-0.4292854 -0.0368,-1.2519559 -0.004,-1.7181944 m 5.050216,0.00795 c -0.170956,0.044731 -0.349509,0.068344 -0.532265,0.068344 -1.160972,0 -2.138273,-0.049531 -2.138273,-1.2105026 m -0.0087,-0.00201 c 0,0.8606431 -0.749718,1.2691572 -1.654724,1.2691572 -0.245673,0 -0.488202,-0.052535 -0.709643,-0.1537087" />
    </g>
  </g>
</svg>
