<svg
   width="80"
   height="80"
   viewBox="0 0 21.166667 21.166667"
   version="1.1"
   xmlns="http://www.w3.org/2000/svg"
   >
    <style>
      .fr-artwork-decorative {
        fill: #ECECFF;
      }
      .fr-artwork-minor {
        fill: #E1000F;
      }
      .fr-artwork-major {
        fill: #000091;
      }
    </style>
     <g
       class="fr-artwork-minor"
       id="artwork-minor"
       style="display:inline"
       transform="translate(172.18087,171.1375)">
       <path
         style="display:inline;fill:none;fill-opacity:1;stroke:#e52632;stroke-width:0.529167;stroke-linecap:round;stroke-linejoin:round;stroke-miterlimit:3.9;stroke-dasharray:none;stroke-opacity:1;paint-order:stroke fill markers"
         d="m -167.51189,-158.14383 c 0.34565,0.57005 0.69147,1.14 1.0372,1.71 m -1.0372,-1.71 c -0.5526,0.33512 -1.10507,0.6704 -1.35383,1.01609 -0.24871,0.34579 -0.19354,0.70217 -0.0207,0.98717 0.17288,0.28499 0.46343,0.4986 0.885,0.43783 0.42158,-0.0608 0.97413,-0.39592 1.5267,-0.73109 m 2.22891,-8.61144 c -0.47806,-0.35574 -1.02676,-0.81659 -1.26322,-1.32739 -0.13804,-0.29818 -0.16968,-0.61337 -0.0188,-0.93461 0.4123,-0.87764 0.84435,-1.75105 1.41496,-2.40715 m 0.73406,-0.65334 c 0.42892,-0.28055 0.92796,-0.44718 1.52492,-0.45004 1.97003,-0.009 3.06046,1.74394 3.64181,3.51053 0.3179,0.96603 -0.65758,1.99717 -1.34105,2.262 m -3.79887,2.46484 c 0.18592,0.21122 0.37184,0.42243 0.58015,0.51501 0.2083,0.0926 0.43899,0.0665 0.66967,0.0405 m -0.67903,-1.6543 c -0.0424,0.17112 -0.0826,0.33316 -0.19349,0.51777 -0.11085,0.18462 -0.30327,0.39727 -0.47476,0.51695 -0.17149,0.11967 -0.30761,0.14736 -0.46119,0.17859 m 2.95487,-1.21331 c 0.0424,0.17112 0.0826,0.33316 0.19348,0.51777 0.11086,0.18462 0.30328,0.39727 0.49135,0.60512 m -1.60108,-1.0362 c 1.38593,0 2.50945,-1.14213 2.50945,-2.55104 0,-0.42928 0.0368,-1.25195 0.004,-1.71819 m -2.55092,4.26936 c -1.38593,0 -2.50945,-1.14214 -2.50945,-2.55104 0,-0.42929 -0.0368,-1.25196 -0.004,-1.7182 m 5.05022,0.008 c -0.17096,0.0447 -0.34951,0.0683 -0.53227,0.0683 -1.16097,0 -2.13827,-0.0495 -2.13827,-1.2105 m -0.009,-0.002 c 0,0.86064 -0.74972,1.26915 -1.65472,1.26915 -0.24568,0 -0.4882,-0.0525 -0.70965,-0.1537"
         />
      </g>
      <g
        class="fr-artwork-major"
        id="artwork-major"
        style="display:inline"
        transform="translate(172.18087,171.1375)">
        <path
          style="display:inline;fill:none;fill-rule:evenodd;stroke:#000091;stroke-width:0.499116;stroke-linecap:round"
          d="m -167.18583,-161.3036 c 0.18347,-0.0266 0.37097,-0.0404 0.5616,-0.0404 2.19378,0 3.97219,1.82319 3.97219,4.0722 0,2.24901 -1.77841,4.07219 -3.97219,4.07219 -0.23616,0 -0.4675,-0.0211 -0.69234,-0.0616 m -1.98166,-0.99922 c -0.7976,-0.7448 -1.29818,-1.81814 -1.29818,-3.01133 0,-0.79972 0.22486,-1.54559 0.61331,-2.17479 m 8.04719,5.82475 c 0.71017,0.39052 1.42034,0.78105 2.17744,1.19736 0.75709,0.41634 1.56112,0.85846 2.05742,1.05313 0.49631,0.19466 0.68493,0.14176 0.83336,0.0521 0.14849,-0.0896 0.25664,-0.21614 0.33519,-0.35897 0.0785,-0.14284 0.1274,-0.30192 0.12979,-0.48661 0.003,-0.18466 -0.0415,-0.39483 -0.46553,-0.72099 -0.42401,-0.32615 -1.22801,-0.76826 -2.08572,-1.23992 -0.85771,-0.47165 -1.7691,-0.97283 -2.68048,-1.47401 m -2.55502,-6.09966 c 2.44532,1.34468 3.33756,4.41709 1.99287,6.8624 -1.34469,2.44532 -4.41709,3.33756 -6.86241,1.99287 -2.44531,-1.34468 -3.33755,-4.41709 -1.99287,-6.86241 1.34469,-2.44531 4.41709,-3.33754 6.86241,-1.99286 z m -2.72548,3.19548 c 0.34304,0.57162 0.68602,1.14328 1.02899,1.71495 m -1.02899,-1.71495 c 0.55414,-0.33255 1.10837,-0.66492 1.53018,-0.72376 0.42187,-0.0588 0.7114,0.15624 0.8829,0.44206 0.17148,0.28583 0.22495,0.64247 -0.0254,0.98706 -0.25036,0.34458 -0.80452,0.67709 -1.35869,1.00959 m 7.69208,-2.87618 c -0.75713,-0.5634 -1.69142,-1.39046 -1.28199,-2.262 0.4123,-0.87765 0.84436,-1.75105 1.41497,-2.40715 m 0.73406,-0.65335 c 0.42892,-0.28055 0.92796,-0.44718 1.52492,-0.45004 1.97002,-0.009 3.06046,1.74395 3.64181,3.51054 0.3179,0.96603 -0.65758,1.99717 -1.34105,2.262 m -3.79887,2.46484 c 0.18592,0.21122 0.37184,0.42243 0.58015,0.51501 0.2083,0.0926 0.43899,0.0665 0.66967,0.0405 m -0.67903,-1.6543 c -0.0424,0.17112 -0.0826,0.33316 -0.19349,0.51777 -0.11085,0.18462 -0.30327,0.39727 -0.47476,0.51695 -0.17149,0.11967 -0.30761,0.14736 -0.48287,0.16365 -0.17526,0.0163 -0.36175,0.0175 -0.52123,0.0231 -0.15949,0.006 -0.27452,0.0149 -0.37148,0.0445 -0.097,0.0296 -0.16606,0.0774 -0.23507,0.12519 m 4.10433,-1.39119 c 0.0424,0.17112 0.0826,0.33316 0.19348,0.51777 0.11086,0.18462 0.30328,0.39727 0.47477,0.51694 0.17148,0.11968 0.30761,0.14737 0.48287,0.16365 0.17526,0.0163 0.36175,0.0175 0.52123,0.0231 0.15948,0.006 0.27502,0.0149 0.40386,0.0728 0.12883,0.0579 0.26001,0.16033 0.39601,0.26654 m -3.38847,-1.47413 c 1.38593,0 2.50945,-1.14214 2.50945,-2.55104 0,-0.42929 0.0368,-1.25196 0.004,-1.7182 m -2.55092,4.26937 c -1.38593,0 -2.50945,-1.14214 -2.50945,-2.55104 0,-0.42929 -0.0368,-1.25196 -0.004,-1.7182 m 5.05022,0.008 c -0.17096,0.0447 -0.34951,0.0683 -0.53227,0.0683 -1.16097,0 -2.13827,-0.0495 -2.13827,-1.2105 m -0.009,-0.002 c 0,0.86065 -0.74972,1.26916 -1.65472,1.26916 -0.24568,0 -0.4882,-0.0525 -0.70965,-0.15371"
          />
      </g>
      <g
        class="fr-artwork-decorative"
        id="artwork-decorative">
        <path
          style="display:inline;fill:#ececff;stroke-width:0.264583"
          d="m 1.7054833,9.2573234 c -0.14589,0 -0.26458,-0.11869 -0.26458,-0.26458 0,-0.14589 0.11869,-0.26458 0.26458,-0.26458 0.14589,0 0.26459,0.11869 0.26459,0.26458 0,0.14589 -0.1187,0.26458 -0.26459,0.26458 z M 19.461183,19.034773 c -0.14589,0 -0.26459,-0.11869 -0.26459,-0.26458 0,-0.14589 0.1187,-0.26458 0.26459,-0.26458 0.14589,0 0.26458,0.11869 0.26458,0.26458 0,0.14589 -0.11869,0.26458 -0.26458,0.26458 z m -9.9039697,1.00432 c -0.14589,0 -0.26458,-0.11869 -0.26458,-0.26458 0,-0.14589 0.11869,-0.26459 0.26458,-0.26459 0.1459,0 0.26459,0.1187 0.26459,0.26459 0,0.14589 -0.11869,0.26458 -0.26459,0.26458 z M 17.169983,1.6567433 c -0.14589,0 -0.26458,-0.11869 -0.26458,-0.26458 0,-0.14589 0.11869,-0.26459 0.26458,-0.26459 0.14589,0 0.26458,0.1187 0.26458,0.26459 0,0.14589 -0.11869,0.26458 -0.26458,0.26458 z m -12.5826497,1.05617 c -0.14589,0 -0.26458,-0.1187 -0.26458,-0.26459 0,-0.14589 0.11869,-0.26458 0.26458,-0.26458 0.14589,0 0.26458,0.11869 0.26458,0.26458 0,0.14589 -0.11869,0.26459 -0.26458,0.26459 z"
          />
      </g>
  </svg>
